<svg width="745" height="658" viewBox="0 0 745 658" fill="none" xmlns="http://www.w3.org/2000/svg">
<g filter="url(#filter0_d_0_181)">
<path fill-rule="evenodd" clip-rule="evenodd" d="M330.695 581.013L125.169 441.697C107.491 429.714 107.629 410.286 125.477 398.303L332.98 258.987C350.828 247.004 379.627 247.004 397.305 258.987L602.831 398.303C620.509 410.286 620.371 429.714 602.524 441.697L395.02 581.013C377.172 592.996 348.373 592.996 330.695 581.013Z" fill="url(#paint0_linear_0_181)"/>
</g>
<g filter="url(#filter1_d_0_181)">
<path fill-rule="evenodd" clip-rule="evenodd" d="M331.838 509.013L125.322 369.697C107.559 357.714 107.559 338.286 125.322 326.303L331.838 186.987C349.6 175.004 378.4 175.004 396.162 186.987L602.678 326.303C620.441 338.286 620.441 357.714 602.678 369.697L396.162 509.013C378.4 520.996 349.6 520.996 331.838 509.013Z" fill="url(#paint1_linear_0_181)"/>
</g>
<g filter="url(#filter2_d_0_181)">
<path fill-rule="evenodd" clip-rule="evenodd" d="M330.838 437.013L124.322 297.697C106.559 285.714 106.559 266.286 124.322 254.303L330.838 114.987C348.6 103.004 377.4 103.004 395.162 114.987L601.678 254.303C619.441 266.286 619.441 285.714 601.678 297.697L395.162 437.013C377.4 448.996 348.6 448.996 330.838 437.013Z" fill="url(#paint2_linear_0_181)"/>
</g>
<rect opacity="0.01" x="313.634" y="15" width="162.129" height="102.528" fill="black"/>
<g clip-path="url(#clip0_0_181)">
<path d="M327.613 222.019C340.707 231.188 363.749 228.939 379.224 216.923C394.527 205.041 396.47 187.89 383.376 178.721C370.282 169.552 347.153 171.868 331.851 183.75C316.376 195.766 314.519 212.85 327.613 222.019ZM383.529 231.939C386.84 234.257 392.994 233.715 397.057 230.56C400.948 227.539 401.45 222.912 398.14 220.594C394.683 218.173 388.516 218.833 384.625 221.854C380.562 225.009 380.072 229.518 383.529 231.939ZM402.214 245.022C405.671 247.444 411.752 246.85 415.815 243.695C419.706 240.674 420.282 236.099 416.825 233.678C413.514 231.36 407.274 231.969 403.383 234.99C399.32 238.145 398.904 242.705 402.214 245.022ZM421.119 258.261C424.503 260.631 430.657 260.089 434.721 256.934C438.611 253.913 439.114 249.286 435.73 246.916C432.346 244.547 426.179 245.207 422.289 248.228C418.225 251.383 417.736 255.892 421.119 258.261ZM437.44 298.926C450.608 308.146 473.649 305.897 489.125 293.881C504.427 281.999 506.37 264.848 493.202 255.628C480.182 246.51 456.98 248.775 441.678 260.656C426.203 272.673 424.42 289.808 437.44 298.926ZM399.774 300.254C403.231 302.675 409.398 302.014 413.375 298.927C417.352 295.839 417.842 291.33 414.384 288.909C411.075 286.591 404.994 287.185 401.017 290.273C397.04 293.361 396.464 297.936 399.774 300.254ZM368.368 304.435C371.825 306.856 377.906 306.262 381.97 303.107C385.86 300.086 386.437 295.511 382.979 293.089C379.669 290.772 373.428 291.381 369.538 294.401C365.474 297.557 365.058 302.117 368.368 304.435ZM287.637 334.206C300.731 343.374 323.859 341.059 339.248 329.11C354.637 317.16 356.493 300.076 343.4 290.908C330.306 281.738 307.264 283.987 291.875 295.936C276.486 307.885 274.543 325.036 287.637 334.206ZM323.643 273.116C327.027 275.485 333.107 274.892 337.171 271.736C341.062 268.716 341.638 264.14 338.254 261.771C334.87 259.401 328.63 260.01 324.739 263.031C320.676 266.186 320.259 270.746 323.643 273.116ZM327.684 249.773C331.068 252.142 337.235 251.482 341.212 248.394C345.189 245.306 345.679 240.798 342.295 238.428C338.837 236.007 332.757 236.601 328.78 239.688C324.803 242.776 324.227 247.352 327.684 249.773Z" fill="url(#paint3_linear_0_181)" fill-opacity="0.85"/>
</g>
<defs>
<filter id="filter0_d_0_181" x="62" y="202" width="604" height="440" filterUnits="userSpaceOnUse" color-interpolation-filters="sRGB">
<feFlood flood-opacity="0" result="BackgroundImageFix"/>
<feColorMatrix in="SourceAlpha" type="matrix" values="0 0 0 0 0 0 0 0 0 0 0 0 0 0 0 0 0 0 127 0" result="hardAlpha"/>
<feOffset dy="2"/>
<feGaussianBlur stdDeviation="25"/>
<feColorMatrix type="matrix" values="0 0 0 0 0 0 0 0 0 0 0 0 0 0 0 0 0 0 0.126147 0"/>
<feBlend mode="normal" in2="BackgroundImageFix" result="effect1_dropShadow_0_181"/>
<feBlend mode="normal" in="SourceGraphic" in2="effect1_dropShadow_0_181" result="shape"/>
</filter>
<filter id="filter1_d_0_181" x="62" y="130" width="604" height="440" filterUnits="userSpaceOnUse" color-interpolation-filters="sRGB">
<feFlood flood-opacity="0" result="BackgroundImageFix"/>
<feColorMatrix in="SourceAlpha" type="matrix" values="0 0 0 0 0 0 0 0 0 0 0 0 0 0 0 0 0 0 127 0" result="hardAlpha"/>
<feOffset dy="2"/>
<feGaussianBlur stdDeviation="25"/>
<feColorMatrix type="matrix" values="0 0 0 0 0 0 0 0 0 0 0 0 0 0 0 0 0 0 0.126147 0"/>
<feBlend mode="normal" in2="BackgroundImageFix" result="effect1_dropShadow_0_181"/>
<feBlend mode="normal" in="SourceGraphic" in2="effect1_dropShadow_0_181" result="shape"/>
</filter>
<filter id="filter2_d_0_181" x="61" y="58" width="604" height="440" filterUnits="userSpaceOnUse" color-interpolation-filters="sRGB">
<feFlood flood-opacity="0" result="BackgroundImageFix"/>
<feColorMatrix in="SourceAlpha" type="matrix" values="0 0 0 0 0 0 0 0 0 0 0 0 0 0 0 0 0 0 127 0" result="hardAlpha"/>
<feOffset dy="2"/>
<feGaussianBlur stdDeviation="25"/>
<feColorMatrix type="matrix" values="0 0 0 0 0 0 0 0 0 0 0 0 0 0 0 0 0 0 0.126147 0"/>
<feBlend mode="normal" in2="BackgroundImageFix" result="effect1_dropShadow_0_181"/>
<feBlend mode="normal" in="SourceGraphic" in2="effect1_dropShadow_0_181" result="shape"/>
</filter>
<linearGradient id="paint0_linear_0_181" x1="112" y1="250" x2="112" y2="590" gradientUnits="userSpaceOnUse">
<stop stop-color="#4DEAD7"/>
<stop offset="1" stop-color="#746AE5"/>
</linearGradient>
<linearGradient id="paint1_linear_0_181" x1="112" y1="178" x2="112" y2="518" gradientUnits="userSpaceOnUse">
<stop stop-color="#97B87E"/>
<stop offset="1" stop-color="#6ABFEE"/>
</linearGradient>
<linearGradient id="paint2_linear_0_181" x1="111" y1="106" x2="111" y2="446" gradientUnits="userSpaceOnUse">
<stop stop-color="#EFABF5"/>
<stop offset="1" stop-color="#FFF9F5"/>
</linearGradient>
<linearGradient id="paint3_linear_0_181" x1="438.326" y1="217.2" x2="333.771" y2="366.511" gradientUnits="userSpaceOnUse">
<stop stop-color="#B54141"/>
<stop offset="1" stop-color="#5E326D" stop-opacity="0.96"/>
</linearGradient>
<clipPath id="clip0_0_181">
<rect width="192" height="191" fill="white" transform="matrix(0.819134 0.573602 -0.789853 0.613296 359.862 162)"/>
</clipPath>
</defs>
</svg>
